<svg xmlns="http://www.w3.org/2000/svg" xmlns:xlink="http://www.w3.org/1999/xlink" viewBox="0 0 1471.43 587.16"><defs><style>.cls-1{stroke:#636262;stroke-miterlimit:10;stroke-width:3px;fill-rule:evenodd;fill:url(#Degradado_sin_nombre_13);}</style><linearGradient id="Degradado_sin_nombre_13" x1="735.72" y1="585.66" x2="735.72" y2="1.5" gradientUnits="userSpaceOnUse"><stop offset="0" stop-color="#ff9b04"/><stop offset="0.51" stop-color="#ffc50c"/><stop offset="1" stop-color="#ff9b04"/></linearGradient></defs><title>Recurso 3</title><g id="Capa_2" data-name="Capa 2"><g id="Capa_1-2" data-name="Capa 1"><path class="cls-1" d="M151,555.28l22.12-3.16a17.73,17.73,0,0,0,15-20.06h0a17.72,17.72,0,0,0-20-15L146,520.19a17.7,17.7,0,0,0-15,20h0a17.73,17.73,0,0,0,20.05,15ZM682.93,343.2l-7,160.41c-.15,15.27-10.8,26.49-26.11,28.68l-43.48,6.22a32.68,32.68,0,0,1-10.56-.17l0,.67L390.21,568.39,289.82,582.74,271,585.43c-12.36,1.77-22.59-6.93-23-19.37l1.65-74.72L138.18,507.27a17.11,17.11,0,1,1-4.84-33.87l344.9-49.29a19.36,19.36,0,1,0-5.48-38.33L255.22,416.87l-.85-27.2-54.8,7.83a17.1,17.1,0,1,1-4.84-33.86l206.33-30.89a19.35,19.35,0,0,0,16.38-21.84l-.17-1.15a19.33,19.33,0,0,0-21.84-16.37L263.8,312.2l-.67-22.67-20,2.86a17.1,17.1,0,1,1-4.84-33.86l114.44-16.36a19.35,19.35,0,0,0,16.36-21.95l-.11-.81a19.35,19.35,0,0,0-21.86-16.48l-76.41,10.91-.63-22.32c-.39-12.56,9.18-24.08,21.53-25.84L508,134.75H508L559,127.47a28,28,0,0,1,28.71,14.43l47.76,96.5,59.74-117.17A31,31,0,0,1,718,104.74l50.94-7.28c15.14-2.17,30,5.55,32.23,21.28,1.45,10.13-3,17.08-7.48,25.81l-.25.46L682.93,343.2ZM65.8,406.37l22.11-3.16a17.74,17.74,0,0,0,15-20.06h0a17.75,17.75,0,0,0-20.06-15l-22.1,3.16a17.75,17.75,0,0,0-15,20.06h0a17.74,17.74,0,0,0,20.06,15ZM21.73,571.14,43.84,568a17.74,17.74,0,0,0,15-20.05h0a17.74,17.74,0,0,0-20.06-15l-22.11,3.16a17.73,17.73,0,0,0-15,20.05h0a17.72,17.72,0,0,0,20.05,15Zm147.2-115.82,15.34-2.2c6.71-1,11-9.59,9.65-19.28h0c-1.38-9.69-7.95-16.77-14.67-15.81l-15.34,2.2c-6.71,1-11,9.59-9.65,19.28h0c1.38,9.69,8,16.77,14.67,15.81Zm-1.05-110.95L190,341.21a17.7,17.7,0,0,0,15-20h0A17.73,17.73,0,0,0,185,306.12l-22.11,3.17a17.72,17.72,0,0,0-15,20.06h0a17.72,17.72,0,0,0,20,15Zm26-88.71,22.11-3.16a17.72,17.72,0,0,0,15-20.05h0a17.73,17.73,0,0,0-20.05-15l-22.11,3.16a17.73,17.73,0,0,0-15,20.06h0a17.73,17.73,0,0,0,20.06,15ZM402,478l-22.08,3.16a17.74,17.74,0,0,0,5,35.13L407,513.14A17.74,17.74,0,1,0,402,478ZM490.39,331.2l-22.19,3.18a17.74,17.74,0,0,0,5,35.12l22.19-3.17a17.74,17.74,0,0,0-5-35.13ZM84.92,467.29,107,464.13a17.73,17.73,0,0,0,15-20.05h0a17.72,17.72,0,0,0-20.06-15l-22.11,3.16a17.72,17.72,0,0,0-15,20.05h0a17.71,17.71,0,0,0,20,15Zm832.25-59.1-76.7,11-23.68,72.14c-3.37,11.35-12.91,19-24.78,20.67l-46.58,6.66c-15.2,2.17-29.51-6.65-31.7-21.94-1.13-7.93,2.11-16.52,4.75-23.76L846.67,103.26C850.1,92,859.6,84.5,871.38,82.81L904.93,78c13.63-2,25.92,4.78,30.58,17.56l.27.73,96.36,336.75a105,105,0,0,1,3.7,15.21c2.39,16.7-9,30.13-25.81,32.53l-46.58,6.66c-13.63,2-25.89-4.78-30.58-17.53l-.41-1.08-15.29-60.66Zm244.83-4c4.74,33.16-21.57,63.92-54.87,68.68-28.46,4.06-53.78-12.34-57.83-40.72-4.74-33.16,21.57-63.92,54.88-68.67,28.46-4.07,53.76,12.33,57.82,40.71Zm136.65-19.53c4.74,33.16-21.57,63.92-54.87,68.68C1215.32,457.38,1190,441,1186,412.6c-4.74-33.16,21.58-63.92,54.87-68.67,28.47-4.07,53.78,12.33,57.83,40.71ZM1469.14,42l-6.38,142.71-18.23,106.68-.06.32c-2.57,12.86-11.75,22-25.14,23.94l-16.77,2.4c-15.59,2.22-29.57-7-31.78-22.53-.9-6.26-.53-12.59-1.41-18.75l-.08-.56-7.61-85,6.58-154.45c.15-15.28,10.8-26.51,26.12-28.7l43.47-6.21c15.54-2.22,29.46,6.28,31.7,21.94.83,5.84.14,12.35-.41,18.25Zm-9,319.52c4.74,33.16-21.57,63.92-54.87,68.67-28.46,4.07-53.77-12.33-57.83-40.71-4.74-33.16,21.57-63.92,54.88-68.68,28.46-4.07,53.77,12.34,57.82,40.72ZM893.7,319.5l-9.28-40.16-13.24,43.38,22.52-3.22Zm-222,20.72-7.17,163.35c-.1,9.8-6.63,16.39-16.37,17.78l-43.48,6.22c-9.31,1.33-17.56-3-18.93-12.61-.64-4.48.83-8.48.79-12.81v-.29l6.64-154L500.72,181.34c-2.6-4.93-7.24-10.77-8-16.15-1.5-10.51,6.74-18.06,16.87-19.51l50.94-7.27a16.72,16.72,0,0,1,17.09,8.6l57.62,116.48,70-137.38a19.66,19.66,0,0,1,14.26-10.43l50.93-7.28c8.91-1.27,18.1,2.38,19.47,11.94,1,7-3.2,13.16-6.29,19.12l-.16.31L671.75,340.22Zm254,55.59-93.83,13.41L806,488.14c-2.08,7.22-8,11.81-15.52,12.88l-46.58,6.66c-9,1.29-17.63-3.41-18.94-12.6-.78-5.47,2.43-13.67,4.26-18.67L857.45,106.54c2.11-7.17,8-11.72,15.5-12.79L906.49,89c8.31-1.19,15.48,2.56,18.37,10.4l.14.37,96.31,336.53a100.4,100.4,0,0,1,3.33,13.61c1.52,10.63-5.57,18.48-16.18,20l-46.58,6.66c-8.32,1.19-15.49-2.56-18.37-10.4l-.21-.54-17.58-69.77Zm225.09,10c3.87,27.09-18.1,52.26-45.24,56.14-22.34,3.19-41.88-9.1-45.07-31.38-3.87-27.08,18.1-52.26,45.24-56.13,22.33-3.2,41.88,9.1,45.07,31.37Zm136.65-19.53c3.87,27.09-18.11,52.26-45.25,56.14-22.33,3.19-41.88-9.1-45.06-31.38-3.87-27.08,18.1-52.26,45.23-56.13,22.34-3.2,41.89,9.1,45.08,31.37Zm170.4-344.87-6.36,142.29-18.09,105.86,0,.17c-1.66,8.2-7,13.82-15.61,15.06L1401,307.14c-9.38,1.34-17.66-3.72-19-13.18-.89-6.18-.54-12.58-1.42-18.75l0-.28-7.52-84,6.57-154.1c.09-9.8,6.61-16.39,16.37-17.79l43.47-6.21c9.32-1.33,17.57,3,18.94,12.6.65,4.59,0,11.23-.49,16ZM1449,363.16c3.87,27.09-18.1,52.26-45.24,56.13-22.34,3.2-41.88-9.1-45.07-31.37-3.87-27.09,18.11-52.26,45.24-56.14,22.34-3.19,41.88,9.1,45.07,31.38ZM907.62,328.67c-.69-3.26-1.61-6.63-2.43-9.69l-.08-.36L886,235.74l-29.77,97.55c-.23.82-.54,1.8-.89,2.86l52.33-7.48ZM778.72,122c-.33-2.32-3-3.12-6.71-2.59l-50.93,7.28a8.42,8.42,0,0,0-5.71,4.36L641.12,276.66c-1.45,3.16-4.31,5.35-6.17,5.62s-3.35-1.3-5-4L567.55,152.13a5.43,5.43,0,0,0-5.47-2.77l-50.93,7.28c-5,.71-7.75,3.48-7.25,7,.33,2.32,4.27,7.68,6.88,12.64l93.87,169L597.9,502c.05,4.73-1.24,9-.91,11.38.42,2.91,2.45,3.8,6.17,3.27l43.48-6.22c4.35-.62,6.58-2.72,6.63-6.87l7.28-166.28,113-202.72c3-5.76,5.59-9.69,5.17-12.59Zm234.7,329.52a112.89,112.89,0,0,0-3-12L914.21,103.18c-1-2.81-3.07-3.71-6.17-3.26l-33.54,4.79c-3.11.45-5.43,2-6.25,5L739.88,479.91c-2.73,7.5-4,11.83-3.76,13.57.33,2.32,2.44,3.79,6.17,3.26l46.59-6.66c3.1-.44,5.42-1.95,6.25-5l26.93-82c.83-3.08,3.23-4,6.34-4.46L929,384.17c3.1-.44,5.05-.13,6.08,2.68l19,75.47c1,2.81,3.07,3.71,6.17,3.26l46.58-6.66c5-.71,7.13-3.39,6.54-7.45ZM919.53,331c.5,3.48-1.5,7.32-6.46,8l-65.22,9.32c-3.73.53-5.84-.94-6.17-3.26s1.49-7.33,3.6-14.73l31.93-104.66c1.29-4.33,7.5-23,8.7-27.9l2.48-.35c1.29,4.55,4.85,20.62,6.14,25.18l21.59,93.45c1.37,5.14,2.91,11.43,3.41,14.92Zm220.06,76.34c-2.16-15.09-14.91-24.52-32.31-22-21.73,3.1-38.5,23.27-35.6,43.58,2.16,15.09,14.92,24.52,32.31,22,21.73-3.11,38.5-23.27,35.6-43.59Zm136.64-19.53c-2.16-15.09-14.91-24.52-32.3-22-21.74,3.1-38.51,23.27-35.61,43.58,2.16,15.09,14.92,24.52,32.31,22,21.74-3.11,38.51-23.27,35.6-43.59ZM1447.12,27c-.42-2.9-2.44-3.79-6.17-3.26L1397.47,30c-4.34.62-6.58,2.71-6.62,6.87l-6.55,153.73,7.44,83.05c.82,5.8.74,14.1,1.41,18.75.41,2.9,2.52,4.37,6.25,3.84l16.77-2.4c3.73-.53,5.34-2.54,6.09-6.19l18-105,6.33-141.88c.5-5.4.91-11.38.58-13.7Zm-9.4,337.76c-2.16-15.09-14.92-24.52-32.3-22-21.74,3.11-38.51,23.28-35.6,43.59,2.15,15.09,14.91,24.52,32.29,22,21.75-3.11,38.52-23.27,35.61-43.59Z"/></g></g></svg>